<svg
  xmlns="http://www.w3.org/2000/svg"
  width="128"
  height="128"
  viewBox="0 0 128 128"
  fill="none"
>
  <rect width="110" height="110" x="9" y="9" fill="#fff" rx="6"/>
  <path fill="#101037" d="M80.195 45.455c-.426-3.599-2.155-6.392-5.185-8.381-3.03-1.989-6.747-2.983-11.15-2.983-3.22 0-6.037.52-8.452 1.562-2.391 1.042-4.261 2.474-5.61 4.297-1.327 1.823-1.99 3.895-1.99 6.215 0 1.941.462 3.61 1.385 5.007a12.287 12.287 0 0 0 3.623 3.445 25.95 25.95 0 0 0 4.616 2.237c1.61.568 3.09 1.03 4.439 1.385l7.386 1.988c1.894.497 4.001 1.184 6.321 2.06a29.185 29.185 0 0 1 6.712 3.587c2.154 1.491 3.93 3.409 5.327 5.752 1.396 2.344 2.095 5.22 2.095 8.63 0 3.93-1.03 7.48-3.09 10.653-2.036 3.172-5.019 5.694-8.948 7.564-3.907 1.87-8.654 2.805-14.24 2.805-5.209 0-9.719-.84-13.53-2.52-3.788-1.682-6.771-4.025-8.95-7.032-2.154-3.007-3.373-6.499-3.657-10.476h9.091c.237 2.746 1.16 5.019 2.77 6.818 1.633 1.776 3.693 3.102 6.179 3.978 2.51.852 5.208 1.278 8.096 1.278 3.362 0 6.38-.545 9.056-1.634 2.675-1.112 4.794-2.651 6.356-4.616 1.563-1.989 2.344-4.309 2.344-6.96 0-2.415-.675-4.38-2.024-5.895-1.35-1.515-3.125-2.746-5.327-3.693a55.965 55.965 0 0 0-7.137-2.486l-8.95-2.557c-5.681-1.634-10.18-3.966-13.494-6.996-3.314-3.03-4.971-6.995-4.971-11.896 0-4.072 1.1-7.623 3.302-10.654 2.226-3.053 5.209-5.42 8.95-7.102 3.763-1.704 7.966-2.557 12.606-2.557 4.687 0 8.854.84 12.5 2.522 3.645 1.657 6.534 3.93 8.664 6.818 2.155 2.888 3.291 6.167 3.41 9.837h-8.523Z"/>
</svg>